/* XPM */
static char * C:\Users\Somic\Documents\MyDesign\Soverain\wallet\pixmaps\bitcoin64_xpm[] = {
"64 64 93 2",
"  	c None",
". 	c #010E35",
"+ 	c #021337",
"@ 	c #2F969F",
"# 	c #2E929B",
"$ 	c #072942",
"% 	c #3DBCC2",
"& 	c #46D4D9",
"* 	c #40C3C9",
"= 	c #42CAD0",
"- 	c #3CB9C0",
"; 	c #50EFF3",
"> 	c #021237",
", 	c #4BE2E7",
"' 	c #041D3E",
") 	c #3AB4BA",
"! 	c #21717B",
"~ 	c #195C69",
"{ 	c #3DBBC2",
"] 	c #4DE7EB",
"^ 	c #4AE1E5",
"/ 	c #05233E",
"( 	c #42C7CD",
"_ 	c #0C3B4E",
": 	c #05243F",
"< 	c #011036",
"[ 	c #052540",
"} 	c #32A0A7",
"| 	c #37AEB5",
"1 	c #3BB8BE",
"2 	c #3AB3B9",
"3 	c #46D3D8",
"4 	c #40C5CB",
"5 	c #1F6B77",
"6 	c #4DE6EA",
"7 	c #247983",
"8 	c #21737E",
"9 	c #4EEAEF",
"0 	c #27808A",
"a 	c #4CE4E9",
"b 	c #0A344A",
"c 	c #4FECF1",
"d 	c #2B8B94",
"e 	c #237781",
"f 	c #319AA2",
"g 	c #28868F",
"h 	c #4BE1E6",
"i 	c #41C6CC",
"j 	c #50EEF2",
"k 	c #37ACB3",
"l 	c #33A0A7",
"m 	c #4EE8ED",
"n 	c #4FEBF0",
"o 	c #21727E",
"p 	c #34A5AB",
"q 	c #247781",
"r 	c #4CE4E8",
"s 	c #195D6B",
"t 	c #44D0D5",
"u 	c #35A7AF",
"v 	c #093047",
"w 	c #011137",
"x 	c #41C7CC",
"y 	c #093148",
"z 	c #021538",
"A 	c #052640",
"B 	c #2D8F98",
"C 	c #48DADE",
"D 	c #062641",
"E 	c #1C6370",
"F 	c #33A1A9",
"G 	c #206F7A",
"H 	c #3EBDC3",
"I 	c #3BB7BE",
"J 	c #47D6DB",
"K 	c #0F3F52",
"L 	c #175765",
"M 	c #031C3D",
"N 	c #021438",
"O 	c #1B616E",
"P 	c #011237",
"Q 	c #48D8DE",
"R 	c #1A5D6B",
"S 	c #3CB9BF",
"T 	c #40C2C8",
"U 	c #43CCD2",
"V 	c #0C394D",
"W 	c #0E3E50",
"X 	c #04213D",
"Y 	c #3FC2C8",
"Z 	c #43CBD1",
"` 	c #40C4CA",
" .	c #34A3AB",
"                                                                                                                                ",
"                                                              . .                                                               ",
"                                                            . . . .                                                             ",
"                                                          . . . . . .                                                           ",
"                                                        . . . . . . . .                                                         ",
"                                                      . . + @ . . # $ . .                                                       ",
"                                                    . . + % & . . * = $ . .                                                     ",
"                                                  . . . - ; & . . * ; = > . .                                                   ",
"                                                . . . . , ; & . . * ; ; ' . . .                                                 ",
"                                              . . . . . , ; & . . * ; ; ' . . . .                                               ",
"                                            . . . . . . , ; & . . * ; ; ' . . . . .                                             ",
"                                          . . . . . . . , ; & . . * ; ; ' . . . . . .                                           ",
"                                        . . . . . . . . , ; & . . * ; ; ' . . . . . . .                                         ",
"                                      . . . . . . . . . , ; & . . * ; ; ' . . . . . . . .                                       ",
"                                    . . . . . . . . . . , ; & . . * ; ; ' . . . . . . . . .                                     ",
"                                  . . + ) ! . . . . . . , ; & . . * ; ; ' . . . . . ~ { $ . .                                   ",
"                                . . + % ; ] ! . . . . . , ; & . . * ; ; ' . . . . ~ ^ ; = $ . .                                 ",
"                              . . . / ( ; ; ] ! . . . . , ; & . . * ; ; ' . . . ~ ^ ; ; & _ . . .                               ",
"                            . . + / . : ( ; ; ] ! . . . , ; & . . * ; ; ' . . ~ ^ ; ; & _ . < [ . .                             ",
"                          . . + % ( : . : ( ; ; ] ! . . } ; & . . * ; | . . ~ ^ ; ; & _ . < 1 = $ . .                           ",
"                        . . . 2 ; ; ( : . : ( ; ; ] ! . . } 3 . . * | . . ~ ^ ; ; & _ . < 1 ; ; 4 . . .                         ",
"                      . . . . 5 6 ; ; ( : . : ( ; ; ] ! . . 7 . . 8 . . ~ ^ ; ; & _ . < 1 ; ; 9 0 . . . .                       ",
"                    . . . . . . 5 6 ; ; ( : . : ( ; ; ] ! . . . . . . ~ ^ ; ; & _ . < 1 ; ; 9 0 . . . . . .                     ",
"                  . . . . . . . . 5 6 ; ; ( : . : ( ; ; ] ! . . . . ~ ^ ; ; & _ . < 1 ; ; 9 0 . . . . . . . .                   ",
"                . . . . . . . . . . 5 6 ; ; ( : . : ( ; ; ] ! . . ~ ^ ; ; & _ . < 1 ; ; 9 0 . . . . . . . . . .                 ",
"              . . . . . . . . . . . . 5 6 ; ; ( : . : ( ; ; a b ~ ^ ; ; & _ . < 1 ; ; 9 0 . . . . . . . . . . . .               ",
"            . . . . . . . . . . . . . . 5 6 ; ; ( : . : ( c d ~ ^ ; ; & _ . < 1 ; ; 9 0 . . . . . . . . . . . . . .             ",
"          . . . . . . . . . . . . . . . . 5 6 ; ; ( : . : e ~ ^ ; ; & _ . < 1 ; ; 9 0 . . . . . . . . . . . . . . . .           ",
"        . . + - , , , , , , , , , , , f . . 5 6 ; ; ( : . ~ ^ ; ; & _ . < 1 ; ; 9 0 . . g h , , , , , , , , , , i $ . .         ",
"      . . + % ; ; ; ; ; ; ; ; ; ; ; ; j f . . 5 6 ; ; ( : k ; ; & _ l ! ~ m ; 9 0 . . g n ; ; ; ; ; ; ; ; ; ; ; ; = $ . .       ",
"    . . . @ & & & & & & & & & & & & & & 3 o . . 5 6 ; ; ( [ 1 & _ p ; ] ! q r 0 . . s t & & & & & & & & & & & & & & u . . .     ",
"  . . . . . . . . . . . . . . . . . . . . . . . . 5 6 ; ; ( [ v w x ; ; ] ! y . . . . . . . . . . . . . . . . . . . . . . . .   ",
"  . . . . . . . . . . . . . . . . . . . . . . . . z 5 6 ; ; ( : < A ( ; ; ] ! . . . . . . . . . . . . . . . . . . . . . . . . . ",
"    . . . B * * * * * * * * * * * * * * * 8 . . ~ C q 5 6 ; ( [ 1 % D ( ; ; ] ! . . E * * * * * * * * * * * * * * * F . . . .   ",
"      . . : ( ; ; ; ; ; ; ; ; ; ; ; ; ; | . . ~ ^ ; m G 5 H [ 1 ; ; I : ( ; ; ] ! . . } ; ; ; ; ; ; ; ; ; ; ; ; ; J K . . .     ",
"        . . : ( ; ; ; ; ; ; ; ; ; ; ; | . . ~ ^ ; ; & _ . < 1 ; ; 9 0 . : ( ; ; ] ! . . } ; ; ; ; ; ; ; ; ; ; ; J K . . .       ",
"          . . w ' ' ' ' ' ' ' ' ' ' ' . . ~ ^ ; ; & _ . < 1 ; ; 9 0 L : . : ( ; ; ] ! . . M ' ' ' ' ' ' ' ' ' ' N . . .         ",
"            . . . . . . . . . . . . . . ~ ^ ; ; & _ . < 1 ; ; 9 0 O , ( : . : ( ; ; ] ! . . . . . . . . . . . . . . .           ",
"              . . . . . . . . . . . . ~ ^ ; ; & _ . < 1 ; ; 9 0 P Q ; ; ( : . : ( ; ; ] ! . . . . . . . . . . . . .             ",
"                . . . . . . . . . . ~ ^ ; ; & _ . < 1 ; ; 9 0 . . 5 6 ; ; ( : . : ( ; ; ] ! . . . . . . . . . . .               ",
"                  . . . . . . . . ~ ^ ; ; & _ . < 1 ; ; 9 0 . . . . 5 6 ; ; ( : . : ( ; ; ] ! . . . . . . . . .                 ",
"                    . . . . . . ~ ^ ; ; & _ . < 1 ; ; 9 0 . . . . . . 5 6 ; ; ( : . : ( ; ; ] ! . . . . . . .                   ",
"                      . . . . ~ ^ ; ; & _ . < 1 ; ; 9 0 . . s . . R . . 5 6 ; ; ( : . : ( ; ; ] ! . . . . .                     ",
"                        . . . S ; ; & _ . < 1 ; ; 9 0 . . g t . . T f . . 5 6 ; ; ( : . : ( ; ; U . . . .                       ",
"                          . . : ( & _ . < 1 ; ; 9 0 . . g n & . . * j f . . 5 6 ; ; ( : . : ( J K . . .                         ",
"                            . . : V . < 1 ; ; 9 0 . . . h ; & . . * ; j M . . 5 6 ; ; ( : . : W . . .                           ",
"                              . . . < 1 ; ; 9 0 . . . . , ; & . . * ; ; ' . . . 5 6 ; ; ( : . . . .                             ",
"                                . . X ( ; 9 0 . . . . . , ; & . . * ; ; ' . . . . 5 6 ; J W . . .                               ",
"                                  . . : Y 0 . . . . . . , ; & . . * ; ; ' . . . . . 5 Z K . . .                                 ",
"                                    . . . . . . . . . . , ; & . . * ; ; ' . . . . . . . . . .                                   ",
"                                      . . . . . . . . . , ; & . . * ; ; ' . . . . . . . . .                                     ",
"                                        . . . . . . . . , ; & . . * ; ; ' . . . . . . . .                                       ",
"                                          . . . . . . . , ; & . . * ; ; ' . . . . . . .                                         ",
"                                            . . . . . . , ; & . . * ; ; ' . . . . . .                                           ",
"                                              . . . . . , ; & . . * ; ; ' . . . . .                                             ",
"                                                . . . . , ; & . . * ; ; ' . . . .                                               ",
"                                                  . . . ` ; & . . * ; J N . . .                                                 ",
"                                                    . . : ( & . . * J K . . .                                                   ",
"                                                      . . :  .. . F K . . .                                                     ",
"                                                        . . . . . . . . .                                                       ",
"                                                          . . . . . . .                                                         ",
"                                                            . . . . .                                                           ",
"                                                              . . .                                                             ",
"                                                                .                                                               "};
