/* XPM */
static char * C:\Users\Somic\Documents\MyDesign\Soverain\wallet\pixmaps\bitcoin16_xpm[] = {
"16 16 47 1",
" 	c None",
".	c #29858E",
"+	c #28838C",
"@	c #010E35",
"#	c #43CCD1",
"$	c #42C9CE",
"%	c #0E3D4F",
"&	c #0C394C",
"*	c #1F6C76",
"=	c #44CFD4",
"-	c #144D5C",
";	c #41C8CD",
">	c #40C5CA",
",	c #114556",
"'	c #206E78",
")	c #0C3B4E",
"!	c #44CED3",
"~	c #2B8B93",
"{	c #1E6772",
"]	c #45D1D5",
"^	c #104253",
"/	c #124B5A",
"(	c #39B3B8",
"_	c #165461",
":	c #41C7CC",
"<	c #1F6B76",
"[	c #39B2B8",
"}	c #38B0B6",
"|	c #3AB3B9",
"1	c #1F6B75",
"2	c #298890",
"3	c #28838B",
"4	c #38AFB5",
"5	c #3AB5BB",
"6	c #1F6A75",
"7	c #40C4C9",
"8	c #29868E",
"9	c #39B3B9",
"0	c #1D6873",
"a	c #0F3F51",
"b	c #206D77",
"c	c #40C3C9",
"d	c #21717B",
"e	c #011337",
"f	c #0F4252",
"g	c #0E3E50",
"h	c #298790",
"                ",
"       .+       ",
"      @#$@      ",
"     %@#$@&     ",
"    *=-;>,#'    ",
"   )!~='{#~]^   ",
"  @@/!~(#~]_@@  ",
" .##:<![}|1>##2 ",
" 3$$>{4|5=67$$8@",
"  @@,#~]9~=-@@@ ",
"   &#~]10!~=a@  ",
"    b]_>c/!de   ",
"     f@#$@ge    ",
"      @#$@@     ",
"       h8@      ",
"        @       "};
