/* XPM */
static char * C:\Users\Somic\Documents\MyDesign\Soverain\wallet\pixmaps\bitcoin32_xpm[] = {
"32 32 71 1",
" 	c None",
".	c #010E35",
"+	c #185865",
"@	c #165462",
"#	c #3DBBC0",
"$	c #329FA6",
"%	c #2E959C",
"&	c #3EBFC4",
"*	c #50EFF3",
"=	c #22737D",
"-	c #1F6C77",
";	c #2E949B",
">	c #4FEDF1",
",	c #2D9199",
"'	c #28838C",
")	c #4FEBEF",
"!	c #309AA1",
"~	c #3EBEC4",
"{	c #4AE0E4",
"]	c #4BE2E6",
"^	c #3FC2C7",
"/	c #011137",
"(	c #2E929A",
"_	c #206F7A",
":	c #4FECF0",
"<	c #28858D",
"[	c #267E87",
"}	c #195C68",
"|	c #3CB8BE",
"1	c #267D86",
"2	c #2B8D95",
"3	c #319DA3",
"4	c #298890",
"5	c #37ABB1",
"6	c #2E939B",
"7	c #4ADEE3",
"8	c #175563",
"9	c #1D6772",
"0	c #1B626F",
"a	c #33A2A8",
"b	c #0F4354",
"c	c #47D7DC",
"d	c #28838B",
"e	c #2E949C",
"f	c #28848D",
"g	c #3099A1",
"h	c #2C8E95",
"i	c #247A83",
"j	c #195D69",
"k	c #165361",
"l	c #247982",
"m	c #2E959D",
"n	c #2F979E",
"o	c #2C8E96",
"p	c #257A84",
"q	c #36AAB0",
"r	c #21727C",
"s	c #257A83",
"t	c #40C3C9",
"u	c #021739",
"v	c #34A3AA",
"w	c #34A4AB",
"x	c #268089",
"y	c #1F6C76",
"z	c #237882",
"A	c #247882",
"B	c #3099A0",
"C	c #319AA2",
"D	c #2D9299",
"E	c #257C85",
"F	c #23757F",
"                                ",
"               ..               ",
"              .+@.              ",
"             .#$%&.             ",
"            ..*$%*..            ",
"           ...*$%*...           ",
"          ....*$%*....          ",
"         .=...*$%*...-.         ",
"        .;>,..*$%*..')!.        ",
"       .;.~>,.{$%].')^/(.       ",
"      ._:~.~>,+<[}')^/|*1.      ",
"     ...2:~.~>,..')^/|*3...     ",
"    .....2:~.~>4')^/|*3.....    ",
"   .......2:~.56)^/|*3.......   ",
"  .#*****782:~9)^0a*3bc*****&.  ",
" .+$$$$$$$d.2:~ef>gh.i$$$$$$$j. ",
" .k%%%%%%%[.lm:no~>,.p%%%%%%%+..",
"  .~*****]}')qr|*s~>,+{*****tu. ",
"   .......')^/|*vw.~>,........  ",
"    .....')^/|*3x:~.~>,......   ",
"     ...')^/|*3..2:~.~>,....    ",
"      .y)^/|*3biz82:~.~>A..     ",
"       .B/|*3.c$%7.2:~.Cu.      ",
"        .D*3..*$%*..2:C..       ",
"         .E...*$%*...Fu.        ",
"          ....*$%*.....         ",
"           ...*$%*....          ",
"            ..*$%*...           ",
"             .~$%t..            ",
"              .}+u.             ",
"               ...              ",
"                .               "};
