/* XPM */
static char * C:\Users\Somic\Documents\MyDesign\Soverain\wallet\pixmaps\bitcoin128_xpm[] = {
"128 128 87 1",
" 	c None",
".	c #010E35",
"+	c #041D3D",
"@	c #247A86",
"#	c #1D6673",
"$	c #144D5E",
"%	c #41C6CC",
"&	c #3AB3BA",
"*	c #29858F",
"=	c #49DCE1",
"-	c #50EFF3",
";	c #3DBDC4",
">	c #031B3D",
",	c #46D5DB",
"'	c #062746",
")	c #35A7AF",
"!	c #072C45",
"~	c #319EA7",
"{	c #43CCD2",
"]	c #36ACB4",
"^	c #0F4254",
"/	c #48D8DD",
"(	c #4DE7EC",
"_	c #206F7A",
":	c #104456",
"<	c #20707B",
"[	c #021438",
"}	c #114557",
"|	c #2C8F98",
"1	c #4FEDF1",
"2	c #3EC0C6",
"3	c #33A1AA",
"4	c #41C7CE",
"5	c #38B0B7",
"6	c #0D3C51",
"7	c #083049",
"8	c #4CE4E9",
"9	c #195B6A",
"0	c #1C6572",
"a	c #42CBD1",
"b	c #28838E",
"c	c #175968",
"d	c #44D0D6",
"e	c #44CED4",
"f	c #4FEBEF",
"g	c #4AE0E5",
"h	c #2A8A94",
"i	c #28858F",
"j	c #35A6AE",
"k	c #3099A1",
"l	c #50EEF2",
"m	c #0C394E",
"n	c #46D3D8",
"o	c #37ADB5",
"p	c #010F36",
"q	c #319CA5",
"r	c #2F96A0",
"s	c #195C6A",
"t	c #02193B",
"u	c #47D8DC",
"v	c #134C5D",
"w	c #042240",
"x	c #021A3B",
"y	c #1B616F",
"z	c #011338",
"A	c #27808B",
"B	c #247985",
"C	c #4EE9EE",
"D	c #247884",
"E	c #42C9D0",
"F	c #39B1B8",
"G	c #3AB5BC",
"H	c #042343",
"I	c #042141",
"J	c #34A4AC",
"K	c #3BB6BE",
"L	c #257D88",
"M	c #309BA4",
"N	c #40C5CC",
"O	c #1F6D78",
"P	c #052342",
"Q	c #227580",
"R	c #0E3E51",
"S	c #40C4CA",
"T	c #3EBFC6",
"U	c #43CBD1",
"V	c #2D909A",
"                                                                                                                                ",
"                                                               ..                                                               ",
"                                                              ....                                                              ",
"                                                             ......                                                             ",
"                                                            ........                                                            ",
"                                                           ..........                                                           ",
"                                                          ............                                                          ",
"                                                         ..............                                                         ",
"                                                        ................                                                        ",
"                                                       ..................                                                       ",
"                                                      ......+@....#$......                                                      ",
"                                                     ......+%&....*=$......                                                     ",
"                                                    ......+%-&....*-=$......                                                    ",
"                                                   ......+%--&....*--=$......                                                   ",
"                                                  ......+%---&....*---=$......                                                  ",
"                                                 .......;----&....*----=>......                                                 ",
"                                                ........,----&....*-----'.......                                                ",
"                                               .........,----&....*-----'........                                               ",
"                                              ..........,----&....*-----'.........                                              ",
"                                             ...........,----&....*-----'..........                                             ",
"                                            ............,----&....*-----'...........                                            ",
"                                           .............,----&....*-----'............                                           ",
"                                          ..............,----&....*-----'.............                                          ",
"                                         ...............,----&....*-----'..............                                         ",
"                                        ................,----&....*-----'...............                                        ",
"                                       .................,----&....*-----'................                                       ",
"                                      ..................,----&....*-----'.................                                      ",
"                                     ...................,----&....*-----'..................                                     ",
"                                    ....................,----&....*-----'...................                                    ",
"                                   .....................,----&....*-----'....................                                   ",
"                                  ......+)!.............,----&....*-----'.............~$......                                  ",
"                                 ......+%-{!............,----&....*-----'............]-=$......                                 ",
"                                ......+%---{!...........,----&....*-----'...........]---=$......                                ",
"                               ......+%-----{!..........,----&....*-----'..........]-----=$......                               ",
"                              .......^/------{!.........,----&....*-----'.........]------(_.......                              ",
"                             .........:/------{!........,----&....*-----'........]------(<.........                             ",
"                            ...........:/------{!.......,----&....*-----'.......]------(<...........                            ",
"                           ......+^.....:/------{!......,----&....*-----'......]------(<.....[}......                           ",
"                          ......+%/:.....:/------{!.....|1---&....*----]......]------(<.....[2=$......                          ",
"                         ......+%--/:.....:/------{!.....|1--&....*---]......]------(<.....[2--=$......                         ",
"                        ......+%----/:.....:/------{!.....|1-&....*--]......]------(<.....[2----=$......                        ",
"                       .......3------/:.....:/------{!.....|1&....*-]......]------(<.....[2------4.......                       ",
"                      ........+%------/:.....:/------{!.....|5....*]......]------(<.....[2------=$........                      ",
"                     ..........+%------/:.....:/------{!.....6....7......]------(<.....[2------=$..........                     ",
"                    ............+%------/:.....:/------{!...............]------(<.....[2------=$............                    ",
"                   ..............+%------/:.....:/------{!.............]------(<.....[2------=$..............                   ",
"                  ................+%------/:.....:/------{!...........]------(<.....[2------=$................                  ",
"                 ..................+%------/:.....:/------{!.........]------(<.....[2------=$..................                 ",
"                ....................+%------/:.....:/------{!.......]------(<.....[2------=$....................                ",
"               ......................+%------/:.....:/------{!.....]------(<.....[2------=$......................               ",
"              ........................+%------/:.....:/------{!...]------(<.....[2------=$........................              ",
"             ..........................+%------/:.....:/-----89..]------(<.....[2------=$..........................             ",
"            ............................+%------/:.....:/---80..]------(<.....[2------=$............................            ",
"           ..............................+%------/:.....:/-80..]------(<.....[2------=$..............................           ",
"          ................................+%------/:.....:a0..]------(<.....[2------=$................................          ",
"         ..................................+%------/:........]------(<.....[2------=$..................................         ",
"        ......+;,,,,,,,,,,,,,,,,,,,,,,b.....+%------/:......]------(<.....[2------=$.....cd,,,,,,,,,,,,,,,,,,,,,e$......        ",
"       ......+%-----------------------fb.....+%------/:....]------(<.....[2------=$.....cg-----------------------=$......       ",
"      ......+%-------------------------fb.....+%------/:..h------(<..i!..j------=$.....cg-------------------------=$......      ",
"     ......+%---------------------------fb.....+%------/:.[2----(<..kl{!.mn----=$.....cg---------------------------=$......     ",
"    ......+%-----------------------------fb.....+%------/:.[2--(<..kl--{!.mn--=$.....cg-----------------------------=$......    ",
"   .......@&&&&&&&&&&&&&&&&&&&&&&&&&&&&&&&o7.....+%------/:.[2(<..kl----{!.mn=$.....pq&&&&&&&&&&&&&&&&&&&&&&&&&&&&&&&r.......   ",
"  ................................................+%------/:.[s..tu------{!.mv................................................  ",
" ..................................................+%------/:.....:/------{!................................................... ",
" ...................................................+%------/:.....:/------{!...................................................",
"  .................................................w.+%------/:..[x.:/------{!................................................. ",
"   .......y********************************7......]nm.+%-----/:.[2%+.:/------{!.....zA*******************************B........  ",
"    ......:/------------------------------]......]--nm.+%---/:.[2--%+.:/------{!.....|1-----------------------------CD.......   ",
"     ......:/----------------------------]......]----nm.+%-/:.[2----%+.:/------{!.....|1---------------------------CD.......    ",
"      ......:/--------------------------]......]------E..+F:.[2------G..:/------{!.....|1-------------------------CD.......     ",
"       ......:/------------------------]......]------(<.....[2------=$...:/------{!.....|1-----------------------CD.......      ",
"        ......:/----------------------]......]------(<.....[2------=$.....:/------{!.....|1---------------------CD.......       ",
"         ......t''''''''''''''''''''''......]------(<.....[2------=$.......:/------{!.....H'''''''''''''''''''''I.......        ",
"          .................................]------(<.....[2------=$.pJ:.....:/------{!.................................         ",
"           ...............................]------(<.....[2------=$.pK-/:.....:/------{!...............................          ",
"            .............................]------(<.....[2------=$.pK---/:.....:/------{!.............................           ",
"             ...........................]------(<.....[2------=$.pK-----/:.....:/------{!...........................            ",
"              .........................]------(<.....[2------=$..x%------/:.....:/------{!.........................             ",
"               .......................]------(<.....[2------=$....+%------/:.....:/------{!.......................              ",
"                .....................]------(<.....[2------=$......+%------/:.....:/------{!.....................               ",
"                 ...................]------(<.....[2------=$........+%------/:.....:/------{!...................                ",
"                  .................]------(<.....[2------=$..........+%------/:.....:/------{!.................                 ",
"                   ...............]------(<.....[2------=$............+%------/:.....:/------{!...............                  ",
"                    .............]------(<.....[2------=$..............+%------/:.....:/------{!.............                   ",
"                     ...........]------(<.....[2------=$.....p..........+%------/:.....:/------{!...........                    ",
"                      .........]------(<.....[2------=$.....cq....Lb.....+%------/:.....:/------{!.........                     ",
"                       .......M------(<.....[2------=$.....cg&....*fb.....+%------/:.....:/------N........                      ",
"                        ......:/----(<.....[2------=$.....cg-&....*-fb.....+%------/:.....:/----CD.......                       ",
"                         ......:/--(<.....[2------=$.....cg--&....*--fb.....+%------/:.....:/--CD.......                        ",
"                          ......:/(<.....[2------=$.....cg---&....*---fb.....+%------/:.....:/CD.......                         ",
"                           ......:O.....[2------=$......d----&....*----fP.....+%------/:.....:Q.......                          ",
"                            ...........[2------=$.......,----&....*-----'......+%------/:............                           ",
"                             .........[2------=$........,----&....*-----'.......+%------/:..........                            ",
"                              .......[2------=$.........,----&....*-----'........+%------/:........                             ",
"                               ......R/-----=$..........,----&....*-----'.........+%-----CQ.......                              ",
"                                ......:/---=$...........,----&....*-----'..........+%---CD.......                               ",
"                                 ......:/-=$............,----&....*-----'...........+%-CD.......                                ",
"                                  ......:S$.............,----&....*-----'............+TD.......                                 ",
"                                   .....................,----&....*-----'.....................                                  ",
"                                    ....................,----&....*-----'....................                                   ",
"                                     ...................,----&....*-----'...................                                    ",
"                                      ..................,----&....*-----'..................                                     ",
"                                       .................,----&....*-----'.................                                      ",
"                                        ................,----&....*-----'................                                       ",
"                                         ...............,----&....*-----'...............                                        ",
"                                          ..............,----&....*-----'..............                                         ",
"                                           .............,----&....*-----'.............                                          ",
"                                            ............,----&....*-----'............                                           ",
"                                             ...........,----&....*-----'...........                                            ",
"                                              ..........,----&....*-----'..........                                             ",
"                                               .........,----&....*-----'.........                                              ",
"                                                ........,----&....*-----'........                                               ",
"                                                 .......U----&....*----CI.......                                                ",
"                                                  ......:/---&....*---CD.......                                                 ",
"                                                   ......:/--&....*--CD.......                                                  ",
"                                                    ......:/-&....*-CD.......                                                   ",
"                                                     ......:/&....*CD.......                                                    ",
"                                                      ......:V....BD.......                                                     ",
"                                                       ...................                                                      ",
"                                                        .................                                                       ",
"                                                         ...............                                                        ",
"                                                          .............                                                         ",
"                                                           ...........                                                          ",
"                                                            .........                                                           ",
"                                                             .......                                                            ",
"                                                              .....                                                             ",
"                                                               ...                                                              ",
"                                                                .                                                               "};
